<svg xmlns="http://www.w3.org/2000/svg" width="110.288" height="14.437"><g stroke-width=".265"><g stroke="#000"><path d="M.133 6.695c-.043 2.39 3.44 7.342 17.664 7.092 13.246-.233 16.237-5.723 15.176-8.099C32.07 3.665 27.372.127 16.31.132 5.036.138.176 4.307.133 6.695z" fill="none"/><path d="M12.811 13.637s1.419.623 3.89.666c2.471.043 3.804-.645 3.804-.645M6.739 6.925c.668 2.31 6.534 3.83 11.76 3.343 5.228-.486 7.507-2.036 7.902-2.887" fill="none"/><path d="M22.076 9.678l11.344-5.82 1.719-1.74-2.213.398-14.56 7.747c1.767-.081 3.71-.585 3.71-.585z" fill="#fcfcfc"/></g><g aria-label="Mao's technical notes" style="line-height:1.25;-inkscape-font-specification:Hack;font-variant-ligatures:normal;font-variant-caps:normal;font-variant-numeric:normal;font-feature-settings:normal;text-align:center" font-weight="400" font-size="5.644" font-family="Hack" letter-spacing="0" word-spacing="0" text-anchor="middle"><path d="M39.721 5.208h.745l.71 2.095.717-2.095h.747v4.115h-.515V5.687l-.733 2.17h-.422l-.736-2.17v3.636h-.513zM44.297 9.403q-.48 0-.758-.268-.133-.126-.207-.297-.074-.174-.074-.416 0-.51.347-.78.342-.268 1.014-.268h.68v-.08q0-.176-.046-.314-.047-.138-.14-.223-.092-.083-.24-.124-.15-.042-.348-.042-.261 0-.526.075-.267.074-.515.218v-.508q.115-.044.256-.088.14-.044.284-.074.25-.052.504-.052.196 0 .356.03.16.027.297.085.127.055.24.14.116.084.196.194.058.08.093.168.036.088.056.174.044.2.044.609v.63l.008.282q.003.121.017.226.013.116.03.218.02.102.033.154.02.085.044.163l.03.088h-.51q-.013-.033-.035-.097-.02-.066-.039-.143l-.028-.121-.016-.108q-.08.138-.207.246-.124.107-.245.17-.132.07-.281.1-.146.033-.314.033zm.104-.425q.416 0 .656-.292.243-.298.243-.802v-.113h-.642q-.441 0-.667.154-.119.08-.174.199-.052.116-.052.27 0 .143.044.25.044.105.124.18.08.072.193.113.115.041.275.041zM47.979 9.403q-.317 0-.565-.102-.246-.105-.416-.312-.174-.215-.257-.518-.082-.306-.082-.692 0-.782.339-1.201.339-.416.98-.416.331 0 .574.107.245.105.41.309.34.419.34 1.199 0 .394-.086.7-.083.306-.253.512-.166.204-.414.309-.245.105-.57.105zm0-.43q.388 0 .587-.303.198-.3.198-.888 0-.587-.198-.89-.199-.3-.587-.3-.386 0-.585.3-.198.303-.198.89t.198.888q.199.303.585.303zM51.134 5.208h.48v1.53h-.48zM54.704 9.403q-.122 0-.251-.014-.127-.011-.246-.033-.107-.022-.253-.06-.143-.04-.29-.086v-.524q.177.088.3.138.125.047.243.08.127.036.246.055.118.02.245.02.333 0 .52-.139.097-.071.141-.168.045-.096.045-.195 0-.193-.163-.312-.163-.121-.513-.193l-.022-.005-.19-.039q-.207-.041-.37-.11-.16-.069-.27-.18-.2-.2-.2-.553 0-.223.074-.394.077-.171.226-.29.157-.126.375-.182.217-.057.488-.057.118 0 .237.01.118.012.234.034.105.022.218.058.115.033.231.08v.496q-.22-.127-.438-.19-.11-.031-.223-.047-.11-.017-.237-.017-.16 0-.29.028-.127.027-.212.082-.17.113-.17.345 0 .096.03.176.033.08.096.13t.21.099q.148.047.421.1l.204.038q.198.038.339.11.14.072.234.176.193.213.193.563 0 .237-.085.413-.083.174-.24.298-.168.132-.394.195-.223.064-.493.064zM62.098 9.334q-.568 0-.805-.229-.234-.226-.234-.788V6.63h-.824v-.394h.824v-.808l.507-.22v1.028h1.152v.394h-1.152v1.687q0 .339.13.477.126.135.452.135h.57v.405h-.62zM65.138 9.403q-.356 0-.64-.108-.28-.11-.479-.322-.198-.212-.303-.51-.102-.3-.102-.678 0-.389.105-.68.104-.296.289-.503.201-.223.471-.33.27-.11.582-.11.309 0 .54.101.234.102.4.295.165.193.25.469.089.273.089.626V7.9h-2.197v.016q0 .505.265.78.126.132.306.204.181.072.432.072t.51-.077q.268-.08.565-.235v.505q-.146.06-.284.104-.138.044-.273.075-.132.03-.264.044-.132.014-.262.014zm.695-1.9q-.006-.236-.064-.404-.055-.171-.146-.276-.1-.116-.245-.174-.146-.058-.328-.058-.372 0-.607.243-.237.245-.28.672zM68.633 9.403q-.345 0-.629-.108-.28-.11-.48-.322-.2-.215-.302-.513-.1-.3-.1-.678 0-.394.105-.692.108-.297.3-.501.204-.215.483-.32.281-.107.625-.107.127 0 .235.013.107.014.212.044.21.058.427.18v.531q-.102-.088-.201-.154-.1-.066-.201-.105-.207-.08-.458-.08-.48 0-.736.31t-.256.878q0 .265.058.49.06.227.198.392.26.312.745.312.137 0 .25-.022.116-.022.213-.061.124-.047.212-.107.09-.064.176-.144v.527q-.094.055-.204.102-.11.046-.215.077-.096.027-.212.041-.113.017-.245.017zM70.606 5.034h.507V6.7q.138-.267.367-.402.229-.135.545-.135.249 0 .422.08.174.08.287.228.231.312.231.94v1.913h-.51V7.41q0-.416-.146-.612t-.46-.196q-.182 0-.317.064-.132.063-.226.187-.193.251-.193.725v1.745h-.507zM74.004 6.236h.458l.05.463q.137-.267.366-.402.229-.135.546-.135.248 0 .421.08.174.08.287.228.232.312.232.94v1.913h-.51V7.41q0-.416-.146-.612t-.46-.196q-.183 0-.318.064-.132.063-.226.187-.193.251-.193.725v1.745h-.507zM78.307 5.676q-.083 0-.083-.082v-.477q0-.083.083-.083h.396q.083 0 .083.083v.477q0 .082-.083.082zm.926 3.669q-.22 0-.397-.07-.174-.068-.306-.222-.251-.292-.251-.827V6.633h-.675v-.397h1.182v1.99q0 .344.127.515.066.091.157.133.094.04.212.04h.593v.43zM82.226 9.403q-.345 0-.629-.108-.28-.11-.48-.322-.2-.215-.302-.513-.1-.3-.1-.678 0-.394.105-.692.108-.297.3-.501.204-.215.483-.32.28-.107.625-.107.127 0 .235.013.107.014.212.044.21.058.427.18v.531q-.102-.088-.201-.154-.1-.066-.201-.105-.207-.08-.458-.08-.48 0-.736.31t-.256.878q0 .265.058.49.06.227.198.392.26.312.745.312.137 0 .25-.022.116-.022.213-.061.124-.047.212-.107.09-.064.176-.144v.527q-.094.055-.204.102-.11.046-.215.077-.096.027-.212.041-.113.017-.245.017zM85.075 9.403q-.48 0-.757-.268-.133-.126-.207-.297-.075-.174-.075-.416 0-.51.348-.78.341-.268 1.014-.268h.68v-.08q0-.176-.046-.314-.047-.138-.14-.223-.092-.083-.24-.124-.15-.042-.348-.042-.262 0-.526.075-.268.074-.516.218v-.508q.116-.044.257-.088.14-.044.284-.074.25-.052.504-.052.196 0 .356.03.16.027.297.085.127.055.24.14.116.084.196.194.058.08.093.168.036.088.055.174.045.2.045.609v.63l.008.282q.003.121.016.226.014.116.03.218.02.102.034.154.02.085.044.163l.03.088h-.51q-.013-.033-.035-.097-.02-.066-.04-.143l-.027-.121-.016-.108q-.08.138-.207.246-.124.107-.245.17-.132.07-.281.1-.146.033-.314.033zm.105-.425q.416 0 .656-.292.243-.298.243-.802v-.113h-.642q-.441 0-.667.154-.119.08-.174.199-.052.116-.052.27 0 .143.044.25.044.105.124.18.08.072.193.113.115.041.275.041zM89.323 9.345q-.22 0-.397-.07-.174-.068-.306-.222-.251-.292-.251-.827V5.43h-.813v-.397h1.32v3.192q0 .344.127.515.066.091.157.133.094.04.212.04h.593v.43h-.642zM94.394 6.236h.457l.05.463q.138-.267.366-.402.23-.135.546-.135.248 0 .422.08.173.08.286.228.232.312.232.94v1.913h-.51V7.41q0-.416-.146-.612t-.46-.196q-.182 0-.317.064-.132.063-.226.187-.193.251-.193.725v1.745h-.507zM98.952 9.403q-.317 0-.565-.102-.245-.105-.416-.312-.173-.215-.256-.518-.083-.306-.083-.692 0-.782.34-1.201.338-.416.98-.416.331 0 .574.107.245.105.41.309.34.419.34 1.199 0 .394-.086.7-.083.306-.254.512-.165.204-.413.309-.245.105-.57.105zm0-.43q.389 0 .587-.303.199-.3.199-.888 0-.587-.199-.89-.198-.3-.587-.3-.386 0-.584.3-.198.303-.198.89t.198.888q.198.303.584.303zM102.877 9.334q-.568 0-.805-.229-.234-.226-.234-.788V6.63h-.824v-.394h.824v-.808l.507-.22v1.028h1.152v.394h-1.152v1.687q0 .339.13.477.126.135.452.135h.57v.405h-.62zM105.917 9.403q-.356 0-.64-.108-.28-.11-.479-.322-.198-.212-.303-.51-.102-.3-.102-.678 0-.389.105-.68.104-.296.289-.503.201-.223.471-.33.27-.11.582-.11.308 0 .54.101.234.102.4.295.165.193.25.469.089.273.089.626V7.9h-2.197v.016q0 .505.265.78.126.132.306.204.181.072.432.072t.51-.077q.267-.08.565-.235v.505q-.146.06-.284.104-.138.044-.273.075-.132.03-.264.044-.133.014-.262.014zm.694-1.9q-.006-.236-.063-.404-.055-.171-.146-.276-.1-.116-.245-.174-.146-.058-.328-.058-.372 0-.607.243-.237.245-.28.672zM109.075 9.403q-.12 0-.25-.014-.127-.011-.246-.033-.107-.022-.253-.06-.144-.04-.29-.086v-.524q.177.088.3.138.125.047.243.08.127.036.246.055.118.02.245.02.333 0 .52-.139.097-.071.141-.168.044-.096.044-.195 0-.193-.162-.312-.163-.121-.513-.193l-.022-.005-.19-.039q-.207-.041-.37-.11-.16-.069-.27-.18-.2-.2-.2-.553 0-.223.074-.394.077-.171.226-.29.157-.126.375-.182.217-.057.487-.057.119 0 .238.01.118.012.234.034.105.022.218.058.115.033.231.08v.496q-.22-.127-.438-.19-.11-.031-.223-.047-.11-.017-.237-.017-.16 0-.29.028-.127.027-.212.082-.171.113-.171.345 0 .096.03.176.033.08.097.13.063.05.21.099.148.047.421.1l.204.038q.198.038.339.11.14.072.234.176.193.213.193.563 0 .237-.085.413-.083.174-.24.298-.168.132-.394.195-.223.064-.494.064z" style="-inkscape-font-specification:Hack"/></g></g></svg>