<svg xmlns="http://www.w3.org/2000/svg" width="195" height="15"><path d="M5.47 36.852c-.042 2.388 3.44 7.341 17.665 7.091 13.246-.233 16.237-5.723 15.176-8.099-.903-2.023-5.601-5.561-16.663-5.556-11.274.006-16.134 4.175-16.177 6.564Z" style="fill:none;stroke:#000;stroke-width:.264583;stroke-linecap:butt;stroke-linejoin:miter;stroke-miterlimit:4;stroke-dasharray:none;stroke-opacity:1" transform="translate(-5.338 -30.156)"/><path d="M18.15 43.793s1.418.623 3.89.666c2.47.043 3.803-.645 3.803-.645M12.077 37.081c.668 2.31 6.534 3.83 11.76 3.343 5.228-.486 7.507-2.036 7.902-2.887" style="fill:none;stroke:#000;stroke-width:.264583;stroke-linecap:butt;stroke-linejoin:miter;stroke-miterlimit:4;stroke-dasharray:none;stroke-opacity:1" transform="translate(-5.338 -30.156)"/><path d="m27.414 39.834 11.344-5.819 1.719-1.74-2.213.397-14.56 7.747c1.767-.081 3.71-.585 3.71-.585Z" style="opacity:1;fill:#fcfcfc;fill-opacity:1;stroke:#000;stroke-width:.264583;stroke-linecap:butt;stroke-linejoin:miter;stroke-miterlimit:4;stroke-dasharray:none;stroke-opacity:1" transform="translate(-5.338 -30.156)"/><g style="font-style:normal;font-variant:normal;font-weight:400;font-stretch:normal;font-size:5.64444px;line-height:1.25;font-family:Hack;-inkscape-font-specification:Hack;font-variant-ligatures:normal;font-variant-caps:normal;font-variant-numeric:normal;font-feature-settings:normal;text-align:center;letter-spacing:0;word-spacing:0;writing-mode:lr-tb;text-anchor:middle;fill:#000;fill-opacity:1;stroke:none;stroke-width:.264583"><g aria-label="mw // casual engineering" style="font-size:10.6667px;font-family:&quot;Source Code Pro&quot;;-inkscape-font-specification:&quot;Source Code Pro&quot;"><path d="M49.927 29.044h.874V25.29c.48-.534.918-.8 1.302-.8.66 0 .97.416.97 1.386v3.168h.875V25.29c.48-.534.896-.8 1.301-.8.65 0 .96.416.96 1.386v3.168h.875V25.76c0-1.323-.512-2.027-1.579-2.027-.63 0-1.162.406-1.706.992-.214-.618-.64-.992-1.43-.992-.618 0-1.162.384-1.61.875h-.032l-.075-.747h-.725Zm9.664 0h1.088l.693-2.773c.128-.47.235-.928.33-1.536h.043c.118.608.203 1.056.331 1.536l.693 2.773h1.142l1.397-5.184h-.853l-.758 2.998c-.106.469-.202.917-.309 1.472h-.043a19 19 0 0 0-.341-1.472l-.779-2.998h-.96l-.768 2.998c-.117.469-.224.917-.33 1.472h-.043c-.085-.555-.192-1.003-.299-1.472l-.757-2.998h-.917Zm10.346 1.707h.64l2.848-9.28h-.64Zm3.734 0h.64l2.848-9.28h-.64Z" style="font-family:&quot;Source Sans 3&quot;;-inkscape-font-specification:&quot;Source Sans 3, &quot;;fill:#0072c6" transform="translate(-5.338 -18.65)"/><path d="M79.917 10.523c.768 0 1.482-.299 2.058-.81l-.394-.566c-.427.363-.96.65-1.6.65-1.195 0-1.995-.8-1.995-1.983 0-1.195.821-2.006 2.016-2.006.544 0 .992.224 1.419.598l.437-.566a2.63 2.63 0 0 0-1.888-.757c-1.568 0-2.89.992-2.89 2.73 0 1.718 1.215 2.71 2.837 2.71m5.333 0c.736 0 1.472-.384 2.048-.832h.032l.075.704h.714V7.216c0-1.29-.682-2.133-2.1-2.133-.908 0-1.782.405-2.305.747l.341.597c.48-.299 1.142-.619 1.814-.619 1.002 0 1.354.598 1.376 1.302-2.678.213-3.755.778-3.755 1.941 0 .928.79 1.472 1.76 1.472m.235-.704c-.598 0-1.142-.245-1.142-.832 0-.683.683-1.12 2.902-1.301V9.05c-.587.49-1.174.768-1.76.768m6.848.704c1.482 0 2.304-.704 2.304-1.547 0-.789-.416-1.226-2.144-1.6-1.056-.224-1.504-.416-1.504-.864 0-.394.31-.746 1.194-.746.662 0 1.26.213 1.74.544l.426-.566c-.512-.352-1.302-.661-2.09-.661-1.42 0-2.156.64-2.156 1.472 0 .779.683 1.237 2.027 1.515 1.408.288 1.621.565 1.621.96 0 .437-.437.81-1.312.81-.96 0-1.653-.277-2.25-.704l-.406.576c.63.438 1.536.811 2.55.811m5.717 0c.8 0 1.408-.427 1.93-1.035h.043l.075.907h.715V5.211h-.875v3.595c-.576.672-1.013.96-1.61.96-.865 0-1.195-.47-1.195-1.451V5.211h-.886v3.221c0 1.366.566 2.091 1.803 2.091m6.4 0c.736 0 1.472-.384 2.048-.832h.032l.075.704h.715V7.216c0-1.29-.683-2.133-2.102-2.133-.906 0-1.781.405-2.304.747l.342.597c.48-.299 1.14-.619 1.813-.619 1.003 0 1.355.598 1.376 1.302-2.677.213-3.755.778-3.755 1.941 0 .928.79 1.472 1.76 1.472m.235-.704c-.597 0-1.141-.245-1.141-.832 0-.683.682-1.12 2.9-1.301V9.05c-.586.49-1.172.768-1.76.768m7.883.704c.565 0 .906-.107 1.386-.31l-.224-.65c-.352.16-.672.235-.97.235-.62 0-1.024-.32-1.024-1.078V2.8h-2.72v.715h1.845v5.141c0 1.227.608 1.867 1.707 1.867m11.85-4.747c.886 0 1.472.523 1.547 1.59h-3.307c.16-1.024.907-1.59 1.76-1.59m.128 4.747c.832 0 1.494-.277 2.006-.619l-.32-.576c-.47.299-.96.491-1.58.491-1.076 0-1.908-.597-2.015-1.77h4.085c.022-.14.043-.331.043-.534 0-1.461-.875-2.432-2.368-2.432-1.387 0-2.645 1.024-2.645 2.71 0 1.727 1.237 2.73 2.794 2.73m3.872-.128h.875V6.779c.608-.63 1.024-.939 1.643-.939.853 0 1.194.47 1.194 1.451v3.104h.875V7.174c0-1.366-.565-2.091-1.792-2.091-.81 0-1.408.437-1.952 1.013h-.043l-.074-.885h-.726Zm8.566 2.39c1.76 0 2.88-.843 2.88-1.814 0-.875-.64-1.216-1.974-1.216h-1.162c-.683 0-1.078-.192-1.078-.597 0-.246.15-.438.406-.598.288.128.608.192.874.192 1.12 0 2.006-.672 2.006-1.781 0-.416-.203-.8-.438-1.045h1.344V5.21h-2.144a2.1 2.1 0 0 0-.768-.128c-1.098 0-2.037.725-2.037 1.856 0 .619.288 1.077.64 1.344v.043c-.395.266-.619.64-.619.97 0 .438.256.704.534.854v.042c-.555.32-.854.736-.854 1.152 0 .918.875 1.44 2.39 1.44m-.054-4.62c-.65 0-1.194-.48-1.194-1.226 0-.725.544-1.216 1.194-1.216.662 0 1.195.49 1.195 1.216 0 .747-.533 1.227-1.195 1.227m.118 3.98c-1.11 0-1.696-.342-1.696-.886 0-.299.17-.597.661-.864.224.064.49.085.79.085h1.013c.789 0 1.184.139 1.184.63 0 .533-.747 1.034-1.952 1.034m6.549-1.75h.875V5.211h-3.286v.715h2.411Zm.341-6.272c.395 0 .704-.267.704-.683 0-.405-.309-.682-.704-.682s-.704.277-.704.682c0 .416.31.683.704.683m3.68 6.272h.875V6.779c.608-.63 1.024-.939 1.643-.939.853 0 1.194.47 1.194 1.451v3.104h.875V7.174c0-1.366-.565-2.091-1.792-2.091-.81 0-1.408.437-1.952 1.013h-.043l-.074-.885h-.726Zm8.8-4.619c.886 0 1.472.523 1.547 1.59h-3.307c.16-1.024.907-1.59 1.76-1.59m.128 4.747c.832 0 1.494-.277 2.006-.619l-.32-.576c-.47.299-.96.491-1.579.491-1.077 0-1.91-.597-2.016-1.77h4.085c.022-.14.043-.331.043-.534 0-1.461-.875-2.432-2.368-2.432-1.387 0-2.645 1.024-2.645 2.71 0 1.727 1.237 2.73 2.794 2.73m6.272-4.747c.886 0 1.472.523 1.547 1.59h-3.307c.16-1.024.907-1.59 1.76-1.59m.128 4.747c.832 0 1.494-.277 2.006-.619l-.32-.576c-.47.299-.96.491-1.579.491-1.077 0-1.91-.597-2.016-1.77h4.085c.022-.14.043-.331.043-.534 0-1.461-.875-2.432-2.368-2.432-1.387 0-2.645 1.024-2.645 2.71 0 1.727 1.237 2.73 2.794 2.73m4.438-.128h.874v-3.04c.62-1.077 1.355-1.483 2.134-1.483.405 0 .597.054.96.182l.202-.758c-.32-.16-.64-.213-1.024-.213-.96 0-1.77.523-2.314 1.355h-.032l-.075-1.227h-.725Zm8.213 0h.875V5.211h-3.286v.715h2.411Zm.341-6.272c.395 0 .704-.267.704-.683 0-.405-.309-.682-.704-.682s-.704.277-.704.682c0 .416.31.683.704.683m3.68 6.272h.875V6.779c.608-.63 1.024-.939 1.643-.939.853 0 1.194.47 1.194 1.451v3.104h.875V7.174c0-1.366-.565-2.091-1.792-2.091-.81 0-1.408.437-1.952 1.013h-.043l-.074-.885h-.726Zm8.566 2.39c1.76 0 2.88-.843 2.88-1.814 0-.875-.64-1.216-1.974-1.216h-1.162c-.683 0-1.078-.192-1.078-.597 0-.246.15-.438.406-.598.288.128.608.192.874.192 1.12 0 2.006-.672 2.006-1.781 0-.416-.203-.8-.438-1.045h1.345V5.21h-2.145a2.1 2.1 0 0 0-.768-.128c-1.098 0-2.037.725-2.037 1.856 0 .619.288 1.077.64 1.344v.043c-.395.266-.619.64-.619.97 0 .438.256.704.534.854v.042c-.555.32-.854.736-.854 1.152 0 .918.875 1.44 2.39 1.44m-.054-4.62c-.65 0-1.194-.48-1.194-1.226 0-.725.544-1.216 1.194-1.216.662 0 1.195.49 1.195 1.216 0 .747-.533 1.227-1.195 1.227m.118 3.98c-1.11 0-1.696-.342-1.696-.886 0-.299.17-.597.661-.864.224.064.49.085.79.085h1.013c.79 0 1.184.139 1.184.63 0 .533-.747 1.034-1.952 1.034"/></g></g></svg>