<?xml version="1.0" encoding="UTF-8" standalone="no"?>
<!-- Created with Inkscape (http://www.inkscape.org/) -->

<svg
   width="195"
   height="15"
   version="1.1"
   id="svg8"
   inkscape:version="1.3.2 (091e20ef0f, 2023-11-25, custom)"
   sodipodi:docname="title.svg"
   xmlns:inkscape="http://www.inkscape.org/namespaces/inkscape"
   xmlns:sodipodi="http://sodipodi.sourceforge.net/DTD/sodipodi-0.dtd"
   xmlns="http://www.w3.org/2000/svg"
   xmlns:svg="http://www.w3.org/2000/svg"
   xmlns:rdf="http://www.w3.org/1999/02/22-rdf-syntax-ns#"
   xmlns:cc="http://creativecommons.org/ns#"
   xmlns:dc="http://purl.org/dc/elements/1.1/">
  <defs
     id="defs2" />
  <sodipodi:namedview
     id="base"
     pagecolor="#ffffff"
     bordercolor="#666666"
     borderopacity="1.0"
     inkscape:pageopacity="0.0"
     inkscape:pageshadow="2"
     inkscape:zoom="3.9767685"
     inkscape:cx="56.32714"
     inkscape:cy="34.072891"
     inkscape:document-units="px"
     inkscape:current-layer="layer2"
     showgrid="false"
     inkscape:window-width="1914"
     inkscape:window-height="1033"
     inkscape:window-x="0"
     inkscape:window-y="0"
     inkscape:window-maximized="1"
     units="px"
     inkscape:object-paths="false"
     inkscape:snap-global="true"
     fit-margin-top="0"
     fit-margin-left="0"
     fit-margin-right="0"
     fit-margin-bottom="0"
     inkscape:showpageshadow="2"
     inkscape:pagecheckerboard="0"
     inkscape:deskcolor="#d1d1d1" />
  <metadata
     id="metadata5">
    <rdf:RDF>
      <cc:Work
         rdf:about="">
        <dc:format>image/svg+xml</dc:format>
        <dc:type
           rdf:resource="http://purl.org/dc/dcmitype/StillImage" />
      </cc:Work>
    </rdf:RDF>
  </metadata>
  <g
     inkscape:groupmode="layer"
     id="layer2"
     inkscape:label="Layer 2"
     transform="translate(-5.3379969,-19.239854)">
    <g
       id="g975"
       transform="translate(0,-10.916227)">
      <path
         sodipodi:nodetypes="zsssz"
         inkscape:connector-curvature="0"
         id="path924"
         d="M 5.4706851,36.851565 C 5.4276471,39.240183 8.9109346,44.193 23.135022,43.943088 36.380766,43.710365 39.371969,38.220412 38.31135,35.844353 37.408328,33.821353 32.70999,30.282804 21.648115,30.288379 10.374012,30.294079 5.5137232,34.462948 5.4706851,36.851565 Z"
         style="fill:none;stroke:#000000;stroke-width:0.264583;stroke-linecap:butt;stroke-linejoin:miter;stroke-miterlimit:4;stroke-dasharray:none;stroke-opacity:1" />
      <path
         inkscape:connector-curvature="0"
         id="path926"
         d="M 18.149468,43.792661 C 18.149468,43.792661 19.567771,44.415856 22.03906,44.458835 24.510349,44.501815 25.842696,43.814152 25.842696,43.814152"
         style="fill:none;stroke:#000000;stroke-width:0.264583;stroke-linecap:butt;stroke-linejoin:miter;stroke-miterlimit:4;stroke-dasharray:none;stroke-opacity:1" />
      <path
         inkscape:connector-curvature="0"
         id="path928"
         d="M 12.07657,37.080965 C 12.745166,39.390657 18.610569,40.910191 23.837766,40.42394 29.064965,39.93769 31.344266,38.387764 31.739346,37.536825"
         style="fill:none;stroke:#000000;stroke-width:0.264583;stroke-linecap:butt;stroke-linejoin:miter;stroke-miterlimit:4;stroke-dasharray:none;stroke-opacity:1" />
      <path
         sodipodi:nodetypes="cccccc"
         inkscape:connector-curvature="0"
         id="path932-3"
         d="M 27.414055,39.833974 38.757862,34.014956 40.477019,32.27431 38.263604,32.671865 23.704494,40.418816 C 25.470638,40.337716 27.414055,39.833974 27.414055,39.833974 Z"
         style="opacity:1;fill:#fcfcfc;fill-opacity:1;stroke:#000000;stroke-width:0.264583;stroke-linecap:butt;stroke-linejoin:miter;stroke-miterlimit:4;stroke-dasharray:none;stroke-opacity:1" />
    </g>
    <g
       style="font-style:normal;font-variant:normal;font-weight:normal;font-stretch:normal;font-size:5.64444px;line-height:1.25;font-family:Hack;-inkscape-font-specification:Hack;font-variant-ligatures:normal;font-variant-caps:normal;font-variant-numeric:normal;font-feature-settings:normal;text-align:center;letter-spacing:0px;word-spacing:0px;writing-mode:lr-tb;text-anchor:middle;fill:#000000;fill-opacity:1;stroke:none;stroke-width:0.264583"
       id="text969"
       transform="translate(0,0.59065978)">
      <text
         xml:space="preserve"
         style="font-style:normal;font-variant:normal;font-weight:normal;font-stretch:normal;font-size:10.6667px;line-height:1.25;font-family:'Source Code Pro';-inkscape-font-specification:'Source Code Pro';opacity:0"
         x="122.90821"
         y="29.04421"
         id="text6"><tspan
           sodipodi:role="line"
           id="tspan6"
           x="122.90821"
           y="29.04421"><tspan
   style="font-style:normal;font-variant:normal;font-weight:normal;font-stretch:normal;font-family:'Source Sans 3';-inkscape-font-specification:'Source Sans 3, '"
   id="tspan5"><tspan
   style="fill:#0072c6;fill-opacity:1"
   id="tspan4">mw  //</tspan>  </tspan>casual engineering</tspan></text>
      <g
         id="text1"
         style="font-size:10.6667px;font-family:'Source Code Pro';-inkscape-font-specification:'Source Code Pro'"
         aria-label="mw  //  casual engineering">
        <path
           style="font-family:'Source Sans 3';-inkscape-font-specification:'Source Sans 3, ';fill:#0072c6"
           d="M 49.926588,29.04421 H 50.801258 V 25.289532 C 51.281259,24.756197 51.718594,24.489529 52.102595,24.489529 52.76393,24.489529 53.073265,24.905531 53.073265,25.8762 V 29.04421 H 53.947934 V 25.289532 C 54.427936,24.756197 54.843937,24.489529 55.249272,24.489529 55.89994,24.489529 56.209275,24.905531 56.209275,25.8762 V 29.04421 H 57.083944 V 25.758867 C 57.083944,24.436196 56.571942,23.732194 55.505272,23.732194 54.875937,23.732194 54.342602,24.137528 53.7986,24.724197 53.585266,24.105528 53.158598,23.732194 52.369262,23.732194 51.750594,23.732194 51.206592,24.116195 50.758591,24.606863 H 50.726591 L 50.651924,23.860194 H 49.926588 Z M 59.590624,29.04421 H 60.678627 L 61.371963,26.270868 C 61.499963,25.801534 61.60663,25.342865 61.702631,24.734863 H 61.745298 C 61.862631,25.342865 61.947965,25.790867 62.075965,26.270868 L 62.769301,29.04421 H 63.910638 L 65.307975,23.860194 H 64.454639 L 63.697304,26.857537 C 63.590637,27.326872 63.494636,27.774873 63.387969,28.329542 H 63.345303 C 63.238636,27.774873 63.131969,27.326872 63.003968,26.857537 L 62.225299,23.860194 H 61.265296 L 60.497294,26.857537 C 60.37996,27.326872 60.273293,27.774873 60.166626,28.329542 H 60.123959 C 60.038625,27.774873 59.931958,27.326872 59.825291,26.857537 L 59.067956,23.860194 H 58.150619 Z M 69.937337,30.750882 H 70.577339 L 73.425348,21.470853 H 72.785346 Z M 73.670688,30.750882 H 74.31069 L 77.158699,21.470853 H 76.518697 Z"
           id="path27" />
        <path
           d="M 85.254743,29.172211 C 86.022745,29.172211 86.737414,28.873543 87.313416,28.361542 L 86.918748,27.796206 C 86.49208,28.158874 85.958745,28.446875 85.318743,28.446875 84.124073,28.446875 83.32407,27.646873 83.32407,26.462869 83.32407,25.268199 84.145406,24.457529 85.340077,24.457529 85.884078,24.457529 86.33208,24.68153 86.758748,25.054864 L 87.196082,24.489529 C 86.769414,24.073528 86.150746,23.732194 85.308077,23.732194 83.740072,23.732194 82.417401,24.724197 82.417401,26.462869 82.417401,28.180208 83.633405,29.172211 85.254743,29.172211 Z M 90.588097,29.172211 C 91.3241,29.172211 92.060102,28.78821 92.636104,28.340208 H 92.668104 L 92.742771,29.04421 H 93.45744 V 25.865534 C 93.45744,24.574863 92.774771,23.732194 91.3561,23.732194 90.44943,23.732194 89.574761,24.137528 89.052093,24.478863 L 89.393427,25.076198 C 89.873428,24.77753 90.534764,24.457529 91.206766,24.457529 92.209436,24.457529 92.561437,25.054864 92.58277,25.758867 89.905429,25.972201 88.828092,26.537536 88.828092,27.700206 88.828092,28.628209 89.617428,29.172211 90.588097,29.172211 Z M 90.822765,28.468209 C 90.22543,28.468209 89.681428,28.222875 89.681428,27.636206 89.681428,26.953537 90.364097,26.516202 92.58277,26.334869 V 27.700206 C 91.996102,28.190874 91.409433,28.468209 90.822765,28.468209 Z M 97.670791,29.172211 C 99.153462,29.172211 99.974798,28.468209 99.974798,27.625539 99.974798,26.836203 99.558797,26.398869 97.830791,26.025534 96.774788,25.801534 96.326786,25.609533 96.326786,25.161532 96.326786,24.766864 96.636121,24.414862 97.521457,24.414862 98.182792,24.414862 98.780127,24.628196 99.260129,24.958864 L 99.686797,24.393529 C 99.174795,24.041528 98.38546,23.732194 97.596124,23.732194 96.177453,23.732194 95.44145,24.372196 95.44145,25.204198 95.44145,25.982867 96.124119,26.441536 97.468123,26.71887 98.876128,27.006871 99.089462,27.284205 99.089462,27.678873 99.089462,28.116208 98.652127,28.489542 97.777458,28.489542 96.817455,28.489542 96.124119,28.212208 95.526784,27.78554 L 95.121449,28.361542 C 95.750785,28.798876 96.657454,29.172211 97.670791,29.172211 Z M 103.38815,29.172211 C 104.18815,29.172211 104.79615,28.745543 105.31882,28.137541 H 105.36149 L 105.43615,29.04421 H 106.15082 V 23.860194 H 105.27615 V 27.454872 C 104.70015,28.126874 104.26282,28.414875 103.66548,28.414875 102.80148,28.414875 102.47081,27.94554 102.47081,26.964204 V 23.860194 H 101.58547 V 27.081538 C 101.58547,28.446875 102.15081,29.172211 103.38815,29.172211 Z M 109.78817,29.172211 C 110.52417,29.172211 111.26018,28.78821 111.83618,28.340208 H 111.86818 L 111.94284,29.04421 H 112.65751 V 25.865534 C 112.65751,24.574863 111.97484,23.732194 110.55617,23.732194 109.6495,23.732194 108.77483,24.137528 108.25217,24.478863 L 108.5935,25.076198 C 109.0735,24.77753 109.73484,24.457529 110.40684,24.457529 111.40951,24.457529 111.76151,25.054864 111.78284,25.758867 109.1055,25.972201 108.02817,26.537536 108.02817,27.700206 108.02817,28.628209 108.8175,29.172211 109.78817,29.172211 Z M 110.02284,28.468209 C 109.4255,28.468209 108.8815,28.222875 108.8815,27.636206 108.8815,26.953537 109.56417,26.516202 111.78284,26.334869 V 27.700206 C 111.19618,28.190874 110.60951,28.468209 110.02284,28.468209 Z M 117.90553,29.172211 C 118.47087,29.172211 118.8122,29.065544 119.2922,28.862877 L 119.0682,28.212208 C 118.7162,28.372208 118.3962,28.446875 118.09753,28.446875 117.47887,28.446875 117.07353,28.126874 117.07353,27.369538 V 21.44952 H 114.35352 V 22.164189 H 116.19886 V 27.305538 C 116.19886,28.532209 116.80686,29.172211 117.90553,29.172211 Z M 129.75625,24.425529 C 130.64158,24.425529 131.22825,24.948197 131.30292,26.014868 H 127.99624 C 128.15624,24.990864 128.90291,24.425529 129.75625,24.425529 Z M 129.88425,29.172211 C 130.71625,29.172211 131.37758,28.894877 131.88959,28.553542 L 131.56959,27.97754 C 131.10025,28.276208 130.60958,28.468209 129.99091,28.468209 128.91358,28.468209 128.08157,27.870873 127.97491,26.697536 H 132.06025 C 132.08159,26.558869 132.10292,26.366869 132.10292,26.164201 132.10292,24.702863 131.22825,23.732194 129.73491,23.732194 128.34824,23.732194 127.08957,24.756197 127.08957,26.441536 127.08957,28.169541 128.32691,29.172211 129.88425,29.172211 Z M 133.75626,29.04421 H 134.63093 V 25.428199 C 135.23893,24.798864 135.65494,24.489529 136.2736,24.489529 137.12694,24.489529 137.46827,24.958864 137.46827,25.940201 V 29.04421 H 138.34294 V 25.822867 C 138.34294,24.457529 137.77761,23.732194 136.55094,23.732194 135.74027,23.732194 135.14293,24.169528 134.59893,24.74553 H 134.55627 L 134.4816,23.860194 H 133.75626 Z M 142.32163,31.433551 C 144.08163,31.433551 145.20164,30.590882 145.20164,29.620212 145.20164,28.745543 144.56163,28.404208 143.2283,28.404208 H 142.06563 C 141.38296,28.404208 140.98829,28.212208 140.98829,27.806873 140.98829,27.561539 141.13762,27.369538 141.39362,27.209538 141.68163,27.337538 142.00163,27.401539 142.26829,27.401539 143.3883,27.401539 144.27363,26.729536 144.27363,25.6202 144.27363,25.204198 144.07097,24.820197 143.8363,24.574863 H 145.1803 V 23.860194 H 143.0363 C 142.8123,23.77486 142.56696,23.732194 142.26829,23.732194 141.16962,23.732194 140.23095,24.457529 140.23095,25.5882 140.23095,26.206868 140.51896,26.665536 140.87096,26.932204 V 26.974871 C 140.47629,27.241538 140.25229,27.614873 140.25229,27.94554 140.25229,28.382875 140.50829,28.649543 140.78562,28.798876 V 28.841543 C 140.23095,29.161544 139.93229,29.577545 139.93229,29.993547 139.93229,30.910883 140.80696,31.433551 142.32163,31.433551 Z M 142.26829,26.81487 C 141.61763,26.81487 141.07362,26.334869 141.07362,25.5882 141.07362,24.862864 141.61763,24.372196 142.26829,24.372196 142.92963,24.372196 143.46296,24.862864 143.46296,25.5882 143.46296,26.334869 142.92963,26.81487 142.26829,26.81487 Z M 142.38563,30.793549 C 141.27629,30.793549 140.68962,30.452215 140.68962,29.908213 140.68962,29.609546 140.86029,29.310878 141.35096,29.04421 141.57496,29.108211 141.84163,29.129544 142.14029,29.129544 H 143.15363 C 143.94297,29.129544 144.33763,29.268211 144.33763,29.758879 144.33763,30.292214 143.59097,30.793549 142.38563,30.793549 Z M 148.93499,29.04421 H 149.80966 V 23.860194 H 146.52431 V 24.574863 H 148.93499 Z M 149.27632,22.772191 C 149.67099,22.772191 149.98032,22.505523 149.98032,22.089522 149.98032,21.684187 149.67099,21.406853 149.27632,21.406853 148.88165,21.406853 148.57232,21.684187 148.57232,22.089522 148.57232,22.505523 148.88165,22.772191 149.27632,22.772191 Z M 152.95634,29.04421 H 153.83101 V 25.428199 C 154.43901,24.798864 154.85501,24.489529 155.47368,24.489529 156.32701,24.489529 156.66835,24.958864 156.66835,25.940201 V 29.04421 H 157.54302 V 25.822867 C 157.54302,24.457529 156.97768,23.732194 155.75101,23.732194 154.94034,23.732194 154.34301,24.169528 153.79901,24.74553 H 153.75634 L 153.68167,23.860194 H 152.95634 Z M 161.75637,24.425529 C 162.6417,24.425529 163.22837,24.948197 163.30304,26.014868 H 159.99636 C 160.15636,24.990864 160.90303,24.425529 161.75637,24.425529 Z M 161.88437,29.172211 C 162.71637,29.172211 163.37771,28.894877 163.88971,28.553542 L 163.56971,27.97754 C 163.10037,28.276208 162.6097,28.468209 161.99104,28.468209 160.9137,28.468209 160.0817,27.870873 159.97503,26.697536 H 164.06038 C 164.08171,26.558869 164.10304,26.366869 164.10304,26.164201 164.10304,24.702863 163.22837,23.732194 161.73503,23.732194 160.34836,23.732194 159.08969,24.756197 159.08969,26.441536 159.08969,28.169541 160.32703,29.172211 161.88437,29.172211 Z M 168.15639,24.425529 C 169.04173,24.425529 169.6284,24.948197 169.70306,26.014868 H 166.39639 C 166.55639,24.990864 167.30306,24.425529 168.15639,24.425529 Z M 168.28439,29.172211 C 169.1164,29.172211 169.77773,28.894877 170.28973,28.553542 L 169.96973,27.97754 C 169.5004,28.276208 169.00973,28.468209 168.39106,28.468209 167.31372,28.468209 166.48172,27.870873 166.37505,26.697536 H 170.4604 C 170.48173,26.558869 170.50307,26.366869 170.50307,26.164201 170.50307,24.702863 169.6284,23.732194 168.13506,23.732194 166.74839,23.732194 165.48972,24.756197 165.48972,26.441536 165.48972,28.169541 166.72705,29.172211 168.28439,29.172211 Z M 172.72174,29.04421 H 173.59641 V 26.004201 C 174.21508,24.926864 174.95109,24.521529 175.72975,24.521529 176.13509,24.521529 176.32709,24.574863 176.68976,24.702863 L 176.89242,23.945528 C 176.57242,23.785527 176.25242,23.732194 175.86842,23.732194 174.90842,23.732194 174.09775,24.254862 173.55375,25.086865 H 173.52175 L 173.44708,23.860194 H 172.72174 Z M 180.93511,29.04421 H 181.80978 V 23.860194 H 178.52443 V 24.574863 H 180.93511 Z M 181.27644,22.772191 C 181.67111,22.772191 181.98044,22.505523 181.98044,22.089522 181.98044,21.684187 181.67111,21.406853 181.27644,21.406853 180.88177,21.406853 180.57244,21.684187 180.57244,22.089522 180.57244,22.505523 180.88177,22.772191 181.27644,22.772191 Z M 184.95646,29.04421 H 185.83113 V 25.428199 C 186.43913,24.798864 186.85513,24.489529 187.4738,24.489529 188.32714,24.489529 188.66847,24.958864 188.66847,25.940201 V 29.04421 H 189.54314 V 25.822867 C 189.54314,24.457529 188.9778,23.732194 187.75113,23.732194 186.94046,23.732194 186.34313,24.169528 185.79913,24.74553 H 185.75646 L 185.68179,23.860194 H 184.95646 Z M 193.52182,31.433551 C 195.28183,31.433551 196.40183,30.590882 196.40183,29.620212 196.40183,28.745543 195.76183,28.404208 194.42849,28.404208 H 193.26582 C 192.58315,28.404208 192.18849,28.212208 192.18849,27.806873 192.18849,27.561539 192.33782,27.369538 192.59382,27.209538 192.88182,27.337538 193.20182,27.401539 193.46849,27.401539 194.58849,27.401539 195.47383,26.729536 195.47383,25.6202 195.47383,25.204198 195.27116,24.820197 195.03649,24.574863 H 196.3805 V 23.860194 H 194.23649 C 194.01249,23.77486 193.76716,23.732194 193.46849,23.732194 192.36982,23.732194 191.43115,24.457529 191.43115,25.5882 191.43115,26.206868 191.71915,26.665536 192.07115,26.932204 V 26.974871 C 191.67648,27.241538 191.45248,27.614873 191.45248,27.94554 191.45248,28.382875 191.70848,28.649543 191.98582,28.798876 V 28.841543 C 191.43115,29.161544 191.13248,29.577545 191.13248,29.993547 191.13248,30.910883 192.00715,31.433551 193.52182,31.433551 Z M 193.46849,26.81487 C 192.81782,26.81487 192.27382,26.334869 192.27382,25.5882 192.27382,24.862864 192.81782,24.372196 193.46849,24.372196 194.12982,24.372196 194.66316,24.862864 194.66316,25.5882 194.66316,26.334869 194.12982,26.81487 193.46849,26.81487 Z M 193.58582,30.793549 C 192.47649,30.793549 191.88982,30.452215 191.88982,29.908213 191.88982,29.609546 192.06049,29.310878 192.55115,29.04421 192.77515,29.108211 193.04182,29.129544 193.34049,29.129544 H 194.35383 C 195.14316,29.129544 195.53783,29.268211 195.53783,29.758879 195.53783,30.292214 194.79116,30.793549 193.58582,30.793549 Z"
           id="path28" />
      </g>
    </g>
  </g>
</svg>
