<?xml version="1.0" encoding="UTF-8" standalone="no"?>
<!-- Created with Inkscape (http://www.inkscape.org/) -->

<svg
   xmlns:dc="http://purl.org/dc/elements/1.1/"
   xmlns:cc="http://creativecommons.org/ns#"
   xmlns:rdf="http://www.w3.org/1999/02/22-rdf-syntax-ns#"
   xmlns:svg="http://www.w3.org/2000/svg"
   xmlns="http://www.w3.org/2000/svg"
   xmlns:sodipodi="http://sodipodi.sourceforge.net/DTD/sodipodi-0.dtd"
   xmlns:inkscape="http://www.inkscape.org/namespaces/inkscape"
   width="110.28807"
   height="14.436958"
   version="1.1"
   id="svg8"
   inkscape:version="0.92.4 5da689c313, 2019-01-14"
   sodipodi:docname="title.svg">
  <defs
     id="defs2" />
  <sodipodi:namedview
     id="base"
     pagecolor="#ffffff"
     bordercolor="#666666"
     borderopacity="1.0"
     inkscape:pageopacity="0.0"
     inkscape:pageshadow="2"
     inkscape:zoom="5.624"
     inkscape:cx="49.051838"
     inkscape:cy="14.820504"
     inkscape:document-units="px"
     inkscape:current-layer="layer2"
     showgrid="false"
     inkscape:window-width="1920"
     inkscape:window-height="1040"
     inkscape:window-x="0"
     inkscape:window-y="21"
     inkscape:window-maximized="1"
     units="px"
     inkscape:object-paths="false"
     inkscape:snap-global="true"
     fit-margin-top="0"
     fit-margin-left="0"
     fit-margin-right="0"
     fit-margin-bottom="0" />
  <metadata
     id="metadata5">
    <rdf:RDF>
      <cc:Work
         rdf:about="">
        <dc:format>image/svg+xml</dc:format>
        <dc:type
           rdf:resource="http://purl.org/dc/dcmitype/StillImage" />
        <dc:title></dc:title>
      </cc:Work>
    </rdf:RDF>
  </metadata>
  <g
     inkscape:groupmode="layer"
     id="layer2"
     inkscape:label="Layer 2"
     transform="translate(-5.3379968,-19.239854)">
    <g
       id="g975"
       transform="translate(0,-10.916227)">
      <path
         sodipodi:nodetypes="zsssz"
         inkscape:connector-curvature="0"
         id="path924"
         d="M 5.4706851,36.851565 C 5.4276471,39.240183 8.9109346,44.193 23.135022,43.943088 36.380766,43.710365 39.371969,38.220412 38.31135,35.844353 37.408328,33.821353 32.70999,30.282804 21.648115,30.288379 10.374012,30.294079 5.5137232,34.462948 5.4706851,36.851565 Z"
         style="fill:none;stroke:#000000;stroke-width:0.26458332;stroke-linecap:butt;stroke-linejoin:miter;stroke-miterlimit:4;stroke-dasharray:none;stroke-opacity:1" />
      <path
         inkscape:connector-curvature="0"
         id="path926"
         d="m 18.149468,43.792661 c 0,0 1.418303,0.623195 3.889592,0.666174 2.471289,0.04298 3.803636,-0.644683 3.803636,-0.644683"
         style="fill:none;stroke:#000000;stroke-width:0.26458332;stroke-linecap:butt;stroke-linejoin:miter;stroke-miterlimit:4;stroke-dasharray:none;stroke-opacity:1" />
      <path
         inkscape:connector-curvature="0"
         id="path928"
         d="m 12.07657,37.080965 c 0.668596,2.309692 6.533999,3.829226 11.761196,3.342975 5.227199,-0.48625 7.5065,-2.036176 7.90158,-2.887115"
         style="fill:none;stroke:#000000;stroke-width:0.26458332;stroke-linecap:butt;stroke-linejoin:miter;stroke-miterlimit:4;stroke-dasharray:none;stroke-opacity:1" />
      <path
         sodipodi:nodetypes="cccccc"
         inkscape:connector-curvature="0"
         id="path932-3"
         d="m 27.414055,39.833974 11.343807,-5.819018 1.719157,-1.740646 -2.213415,0.397555 -14.55911,7.746951 c 1.766144,-0.0811 3.709561,-0.584842 3.709561,-0.584842 z"
         style="opacity:1;fill:#fcfcfc;fill-opacity:1;stroke:#000000;stroke-width:0.26458332;stroke-linecap:butt;stroke-linejoin:miter;stroke-miterlimit:4;stroke-dasharray:none;stroke-opacity:1" />
    </g>
    <g
       aria-label="Mao's technical notes"
       style="font-style:normal;font-variant:normal;font-weight:normal;font-stretch:normal;font-size:5.64444447px;line-height:1.25;font-family:Hack;-inkscape-font-specification:Hack;font-variant-ligatures:normal;font-variant-caps:normal;font-variant-numeric:normal;font-feature-settings:normal;text-align:center;letter-spacing:0px;word-spacing:0px;writing-mode:lr-tb;text-anchor:middle;fill:#000000;fill-opacity:1;stroke:none;stroke-width:0.26458332"
       id="text969">
      <path
         d="m 45.059485,24.447775 h 0.744141 l 0.711067,2.094618 0.71658,-2.094618 h 0.746897 v 4.114822 h -0.515386 v -3.635264 l -0.733117,2.169032 h -0.421679 l -0.735873,-2.169032 v 3.635264 h -0.51263 z"
         style="font-style:normal;font-variant:normal;font-weight:normal;font-stretch:normal;font-family:Hack;-inkscape-font-specification:Hack;stroke-width:0.26458332"
         id="path977" />
      <path
         d="m 49.634572,28.642523 q -0.479558,0 -0.757921,-0.267339 -0.132292,-0.126779 -0.206706,-0.297656 -0.07441,-0.173633 -0.07441,-0.416168 0,-0.509874 0.347266,-0.779969 0.341753,-0.26734 1.014236,-0.26734 h 0.680751 v -0.07993 q 0,-0.176389 -0.04685,-0.314193 -0.04685,-0.137803 -0.14056,-0.223242 -0.09095,-0.08268 -0.239778,-0.124023 -0.148828,-0.04134 -0.347266,-0.04134 -0.261827,0 -0.52641,0.07441 -0.26734,0.07441 -0.515387,0.21773 v -0.507118 q 0.115755,-0.0441 0.256315,-0.08819 0.14056,-0.0441 0.283876,-0.07441 0.250803,-0.05236 0.504362,-0.05236 0.195682,0 0.355534,0.03032 0.159852,0.02756 0.297656,0.08544 0.12678,0.05512 0.239779,0.14056 0.115755,0.08268 0.195681,0.192925 0.05788,0.07993 0.09371,0.168121 0.03583,0.08819 0.05512,0.173633 0.0441,0.201193 0.0441,0.609092 v 0.631142 q 0.0055,0.159852 0.0083,0.28112 0.0028,0.121267 0.01654,0.225998 0.01378,0.115755 0.03032,0.21773 0.01929,0.101975 0.03307,0.15434 0.01929,0.08544 0.0441,0.162609 0.02481,0.07441 0.03032,0.08819 h -0.509874 q -0.01378,-0.03307 -0.03583,-0.09646 -0.01929,-0.06615 -0.03859,-0.143316 -0.01378,-0.06063 -0.02756,-0.121268 -0.01102,-0.06339 -0.01654,-0.107487 -0.07993,0.137804 -0.206706,0.245291 -0.124023,0.107487 -0.245291,0.170877 -0.132291,0.0689 -0.28112,0.09922 -0.146072,0.03307 -0.314192,0.03307 z m 0.104731,-0.424435 q 0.416167,0 0.655946,-0.292144 0.242535,-0.297657 0.242535,-0.802019 v -0.112999 h -0.642166 q -0.440972,0 -0.666971,0.154341 -0.118511,0.07993 -0.173633,0.198437 -0.05237,0.115755 -0.05237,0.270096 0,0.143316 0.0441,0.250802 0.0441,0.104731 0.124024,0.179145 0.07993,0.07166 0.192925,0.113 0.115755,0.04134 0.275608,0.04134 z"
         style="font-style:normal;font-variant:normal;font-weight:normal;font-stretch:normal;font-family:Hack;-inkscape-font-specification:Hack;stroke-width:0.26458332"
         id="path979" />
      <path
         d="m 53.31669,28.642523 q -0.316949,0 -0.564996,-0.101974 -0.245291,-0.104731 -0.416167,-0.311437 -0.173633,-0.214974 -0.256315,-0.518142 -0.08268,-0.305925 -0.08268,-0.691776 0,-0.782725 0.338998,-1.201649 0.338997,-0.416167 0.981163,-0.416167 0.330729,0 0.573264,0.107487 0.245291,0.104731 0.410655,0.30868 0.338998,0.418924 0.338998,1.198893 0,0.394119 -0.08544,0.700044 -0.08268,0.305924 -0.253559,0.51263 -0.165364,0.20395 -0.413411,0.308681 -0.245291,0.10473 -0.570508,0.10473 z m 0,-0.429947 q 0.388607,0 0.587044,-0.303169 0.198438,-0.300412 0.198438,-0.887456 0,-0.587045 -0.198438,-0.890213 -0.198437,-0.300412 -0.587044,-0.300412 -0.385851,0 -0.584288,0.300412 -0.198438,0.303168 -0.198438,0.890213 0,0.587044 0.198438,0.887456 0.198437,0.303169 0.584288,0.303169 z"
         style="font-style:normal;font-variant:normal;font-weight:normal;font-stretch:normal;font-family:Hack;-inkscape-font-specification:Hack;stroke-width:0.26458332"
         id="path981" />
      <path
         d="m 56.472398,24.447775 h 0.479557 v 1.529623 h -0.479557 z"
         style="font-style:normal;font-variant:normal;font-weight:normal;font-stretch:normal;font-family:Hack;-inkscape-font-specification:Hack;stroke-width:0.26458332"
         id="path983" />
      <path
         d="m 60.041516,28.642523 q -0.121267,0 -0.250803,-0.01378 -0.126779,-0.01102 -0.24529,-0.03307 -0.107487,-0.02205 -0.253559,-0.06063 -0.143316,-0.03859 -0.289388,-0.08544 v -0.523654 q 0.176388,0.08819 0.300412,0.137803 0.124023,0.04685 0.242535,0.07993 0.126779,0.03583 0.24529,0.05512 0.118512,0.01929 0.245291,0.01929 0.333485,0 0.520899,-0.137804 0.09646,-0.07166 0.14056,-0.168121 0.0441,-0.09646 0.0441,-0.195681 0,-0.192926 -0.162609,-0.311437 -0.162608,-0.121267 -0.51263,-0.192925 l -0.02205,-0.0055 -0.190169,-0.03858 q -0.206706,-0.04134 -0.369314,-0.110243 -0.159853,-0.0689 -0.270096,-0.179145 -0.201193,-0.201194 -0.201193,-0.553972 0,-0.223242 0.07441,-0.394119 0.07717,-0.170876 0.225998,-0.289388 0.157097,-0.126779 0.374827,-0.181901 0.21773,-0.05788 0.487825,-0.05788 0.118511,0 0.237023,0.01102 0.118511,0.01102 0.234266,0.03307 0.104731,0.02205 0.21773,0.05788 0.115755,0.03307 0.231511,0.07993 v 0.496093 q -0.220487,-0.126779 -0.438217,-0.190169 -0.110243,-0.03032 -0.223242,-0.04685 -0.110243,-0.01654 -0.237022,-0.01654 -0.159853,0 -0.289388,0.02756 -0.12678,0.02756 -0.212218,0.08268 -0.170877,0.113 -0.170877,0.34451 0,0.09646 0.03032,0.176389 0.03307,0.07993 0.09646,0.129535 0.06339,0.04961 0.209461,0.09922 0.148829,0.04685 0.42168,0.09922 l 0.20395,0.03858 q 0.198437,0.03859 0.338997,0.110243 0.14056,0.07166 0.234267,0.176389 0.192925,0.212218 0.192925,0.56224 0,0.237022 -0.08544,0.413411 -0.08268,0.173633 -0.239779,0.297656 -0.168121,0.132292 -0.394119,0.195682 -0.223242,0.06339 -0.493338,0.06339 z"
         style="font-style:normal;font-variant:normal;font-weight:normal;font-stretch:normal;font-family:Hack;-inkscape-font-specification:Hack;stroke-width:0.26458332"
         id="path985" />
      <path
         d="m 67.43607,28.573622 q -0.567752,0 -0.804774,-0.228755 -0.234267,-0.225998 -0.234267,-0.788238 v -1.686718 h -0.824067 v -0.394119 h 0.824067 v -0.807531 l 0.507118,-0.220486 v 1.028017 h 1.15204 v 0.394119 h -1.15204 v 1.686718 q 0,0.338998 0.129536,0.476802 0.126779,0.135047 0.451996,0.135047 h 0.570508 v 0.405144 H 67.43607 Z"
         style="font-style:normal;font-variant:normal;font-weight:normal;font-stretch:normal;font-family:Hack;-inkscape-font-specification:Hack;stroke-width:0.26458332"
         id="path987" />
      <path
         d="m 70.476021,28.642523 q -0.355534,0 -0.63941,-0.107486 -0.28112,-0.110244 -0.479557,-0.322461 -0.198438,-0.212218 -0.303168,-0.509875 -0.101975,-0.300412 -0.101975,-0.677994 0,-0.388607 0.104731,-0.680751 0.104731,-0.2949 0.289388,-0.501606 0.201193,-0.223242 0.471289,-0.330729 0.270095,-0.110243 0.581532,-0.110243 0.30868,0 0.540191,0.101974 0.234266,0.101975 0.399631,0.294901 0.165364,0.192925 0.250803,0.468533 0.08819,0.272851 0.08819,0.625629 v 0.248047 h -2.196593 v 0.01654 q 0,0.504362 0.264584,0.77997 0.126779,0.132292 0.305924,0.20395 0.181901,0.07166 0.432704,0.07166 0.250803,0 0.509874,-0.07717 0.26734,-0.07993 0.564996,-0.234266 v 0.504362 q -0.146072,0.06063 -0.283876,0.104731 -0.137804,0.0441 -0.272851,0.07441 -0.132292,0.03032 -0.264584,0.0441 -0.132291,0.01378 -0.261827,0.01378 z m 0.694531,-1.898936 q -0.0055,-0.237023 -0.06339,-0.405143 -0.05512,-0.170877 -0.146072,-0.275608 -0.09922,-0.115755 -0.24529,-0.173633 -0.146072,-0.05788 -0.327973,-0.05788 -0.372071,0 -0.606337,0.242534 -0.237023,0.245291 -0.28112,0.672483 z"
         style="font-style:normal;font-variant:normal;font-weight:normal;font-stretch:normal;font-family:Hack;-inkscape-font-specification:Hack;stroke-width:0.26458332"
         id="path989" />
      <path
         d="m 73.970727,28.642523 q -0.34451,0 -0.628386,-0.107486 -0.28112,-0.110244 -0.479557,-0.322461 -0.201194,-0.214974 -0.303169,-0.512631 -0.09922,-0.300412 -0.09922,-0.677994 0,-0.394119 0.104731,-0.691776 0.107487,-0.297656 0.300412,-0.501606 0.20395,-0.214973 0.482313,-0.319704 0.28112,-0.107487 0.62563,-0.107487 0.126779,0 0.234266,0.01378 0.107487,0.01378 0.212218,0.0441 0.209462,0.05788 0.427192,0.179145 v 0.531923 q -0.101975,-0.08819 -0.201194,-0.15434 -0.09922,-0.06615 -0.201193,-0.104731 -0.206706,-0.07993 -0.457509,-0.07993 -0.479557,0 -0.735872,0.30868 -0.256315,0.311437 -0.256315,0.879188 0,0.264584 0.05788,0.490582 0.06063,0.225998 0.198438,0.391363 0.259071,0.311437 0.74414,0.311437 0.137804,0 0.250803,-0.02205 0.115755,-0.02205 0.212218,-0.06063 0.124024,-0.04685 0.212218,-0.107487 0.09095,-0.06339 0.176389,-0.143316 v 0.526411 q -0.09371,0.05512 -0.20395,0.101975 -0.110243,0.04685 -0.214974,0.07717 -0.09646,0.02756 -0.212218,0.04134 -0.112999,0.01654 -0.24529,0.01654 z"
         style="font-style:normal;font-variant:normal;font-weight:normal;font-stretch:normal;font-family:Hack;-inkscape-font-specification:Hack;stroke-width:0.26458332"
         id="path991" />
      <path
         d="m 75.944078,24.274142 h 0.507118 v 1.664671 q 0.137804,-0.26734 0.366558,-0.402388 0.228755,-0.135047 0.545703,-0.135047 0.248047,0 0.42168,0.07993 0.173633,0.07993 0.286632,0.228754 0.23151,0.311437 0.23151,0.939822 v 1.912717 H 77.793405 V 26.64988 q 0,-0.416167 -0.146072,-0.611849 -0.146072,-0.195681 -0.460264,-0.195681 -0.181902,0 -0.316949,0.06339 -0.132292,0.06339 -0.225999,0.187413 -0.192925,0.250803 -0.192925,0.724848 v 1.744596 h -0.507118 z"
         style="font-style:normal;font-variant:normal;font-weight:normal;font-stretch:normal;font-family:Hack;-inkscape-font-specification:Hack;stroke-width:0.26458332"
         id="path993" />
      <path
         d="m 79.342319,25.475792 h 0.457509 l 0.04961,0.463021 q 0.137804,-0.26734 0.366558,-0.402388 0.228755,-0.135047 0.545703,-0.135047 0.248047,0 0.42168,0.07993 0.173633,0.07993 0.286632,0.228754 0.231511,0.311437 0.231511,0.939822 v 1.912717 H 81.191646 V 26.64988 q 0,-0.416167 -0.146072,-0.611849 -0.146072,-0.195681 -0.460264,-0.195681 -0.181901,0 -0.316949,0.06339 -0.132292,0.06339 -0.225998,0.187413 -0.192926,0.250803 -0.192926,0.724848 v 1.744596 h -0.507118 z"
         style="font-style:normal;font-variant:normal;font-weight:normal;font-stretch:normal;font-family:Hack;-inkscape-font-specification:Hack;stroke-width:0.26458332"
         id="path995" />
      <path
         d="m 83.644555,24.916308 q -0.08268,0 -0.08268,-0.08268 v -0.476801 q 0,-0.08268 0.08268,-0.08268 h 0.396875 q 0.08268,0 0.08268,0.08268 v 0.476801 q 0,0.08268 -0.08268,0.08268 z m 0.926042,3.668338 q -0.220486,0 -0.396875,-0.0689 -0.173633,-0.0689 -0.305925,-0.223242 -0.250803,-0.292144 -0.250803,-0.826823 v -1.593012 h -0.675238 v -0.396875 h 1.182356 v 1.989887 q 0,0.344509 0.12678,0.515386 0.06615,0.09095 0.157096,0.132292 0.09371,0.04134 0.212218,0.04134 h 0.592557 v 0.429948 z"
         style="font-style:normal;font-variant:normal;font-weight:normal;font-stretch:normal;font-family:Hack;-inkscape-font-specification:Hack;stroke-width:0.26458332"
         id="path997" />
      <path
         d="m 87.563697,28.642523 q -0.34451,0 -0.628386,-0.107486 -0.28112,-0.110244 -0.479557,-0.322461 -0.201194,-0.214974 -0.303169,-0.512631 -0.09922,-0.300412 -0.09922,-0.677994 0,-0.394119 0.104731,-0.691776 0.107487,-0.297656 0.300412,-0.501606 0.20395,-0.214973 0.482313,-0.319704 0.28112,-0.107487 0.62563,-0.107487 0.126779,0 0.234266,0.01378 0.107487,0.01378 0.212218,0.0441 0.209462,0.05788 0.427192,0.179145 v 0.531923 q -0.101975,-0.08819 -0.201194,-0.15434 -0.09922,-0.06615 -0.201193,-0.104731 -0.206706,-0.07993 -0.457509,-0.07993 -0.479557,0 -0.735872,0.30868 -0.256316,0.311437 -0.256316,0.879188 0,0.264584 0.05788,0.490582 0.06063,0.225998 0.198438,0.391363 0.259071,0.311437 0.74414,0.311437 0.137804,0 0.250803,-0.02205 0.115755,-0.02205 0.212218,-0.06063 0.124023,-0.04685 0.212218,-0.107487 0.09095,-0.06339 0.176389,-0.143316 v 0.526411 q -0.09371,0.05512 -0.20395,0.101975 -0.110243,0.04685 -0.214974,0.07717 -0.09646,0.02756 -0.212218,0.04134 -0.112999,0.01654 -0.24529,0.01654 z"
         style="font-style:normal;font-variant:normal;font-weight:normal;font-stretch:normal;font-family:Hack;-inkscape-font-specification:Hack;stroke-width:0.26458332"
         id="path999" />
      <path
         d="m 90.41348,28.642523 q -0.479557,0 -0.757921,-0.267339 -0.132291,-0.126779 -0.206705,-0.297656 -0.07442,-0.173633 -0.07442,-0.416168 0,-0.509874 0.347266,-0.779969 0.341754,-0.26734 1.014236,-0.26734 h 0.680751 v -0.07993 q 0,-0.176389 -0.04685,-0.314193 -0.04685,-0.137803 -0.14056,-0.223242 -0.09095,-0.08268 -0.239779,-0.124023 -0.148828,-0.04134 -0.347265,-0.04134 -0.261828,0 -0.526411,0.07441 -0.267339,0.07441 -0.515386,0.21773 v -0.507118 q 0.115755,-0.0441 0.256315,-0.08819 0.14056,-0.0441 0.283876,-0.07441 0.250803,-0.05236 0.504362,-0.05236 0.195681,0 0.355534,0.03032 0.159852,0.02756 0.297656,0.08544 0.126779,0.05512 0.239778,0.14056 0.115756,0.08268 0.195682,0.192925 0.05788,0.07993 0.09371,0.168121 0.03583,0.08819 0.05512,0.173633 0.0441,0.201193 0.0441,0.609092 v 0.631142 q 0.0055,0.159852 0.0083,0.28112 0.0028,0.121267 0.01654,0.225998 0.01378,0.115755 0.03032,0.21773 0.01929,0.101975 0.03307,0.15434 0.01929,0.08544 0.0441,0.162609 0.02481,0.07441 0.03032,0.08819 h -0.509874 q -0.01378,-0.03307 -0.03583,-0.09646 -0.01929,-0.06615 -0.03858,-0.143316 -0.01378,-0.06063 -0.02756,-0.121268 -0.01103,-0.06339 -0.01654,-0.107487 -0.07993,0.137804 -0.206705,0.245291 -0.124024,0.107487 -0.245291,0.170877 -0.132292,0.0689 -0.28112,0.09922 -0.146072,0.03307 -0.314193,0.03307 z m 0.104731,-0.424435 q 0.416168,0 0.655946,-0.292144 0.242535,-0.297657 0.242535,-0.802019 v -0.112999 h -0.642166 q -0.440972,0 -0.66697,0.154341 -0.118512,0.07993 -0.173633,0.198437 -0.05236,0.115755 -0.05236,0.270096 0,0.143316 0.0441,0.250802 0.0441,0.104731 0.124023,0.179145 0.07993,0.07166 0.192926,0.113 0.115755,0.04134 0.275607,0.04134 z"
         style="font-style:normal;font-variant:normal;font-weight:normal;font-stretch:normal;font-family:Hack;-inkscape-font-specification:Hack;stroke-width:0.26458332"
         id="path1001" />
      <path
         d="m 94.660591,28.584646 q -0.220486,0 -0.396875,-0.0689 -0.173633,-0.0689 -0.305925,-0.223242 -0.250803,-0.292144 -0.250803,-0.826823 v -2.794662 h -0.813042 v -0.396875 h 1.320161 v 3.191537 q 0,0.344509 0.126779,0.515386 0.06615,0.09095 0.157096,0.132292 0.09371,0.04134 0.212218,0.04134 h 0.592557 v 0.429948 h -0.642166 z"
         style="font-style:normal;font-variant:normal;font-weight:normal;font-stretch:normal;font-family:Hack;-inkscape-font-specification:Hack;stroke-width:0.26458332"
         id="path1003" />
      <path
         d="m 99.731773,25.475792 h 0.457507 l 0.0496,0.463021 q 0.1378,-0.26734 0.36656,-0.402388 0.22875,-0.135047 0.5457,-0.135047 0.24805,0 0.42168,0.07993 0.17363,0.07993 0.28663,0.228754 0.23151,0.311437 0.23151,0.939822 v 1.912717 H 101.5811 V 26.64988 q 0,-0.416167 -0.14607,-0.611849 -0.14607,-0.195681 -0.46027,-0.195681 -0.1819,0 -0.31695,0.06339 -0.13229,0.06339 -0.22599,0.187413 -0.19293,0.250803 -0.19293,0.724848 v 1.744596 h -0.507117 z"
         style="font-style:normal;font-variant:normal;font-weight:normal;font-stretch:normal;font-family:Hack;-inkscape-font-specification:Hack;stroke-width:0.26458332"
         id="path1005" />
      <path
         d="m 104.29032,28.642523 q -0.31694,0 -0.56499,-0.101974 -0.24529,-0.104731 -0.41617,-0.311437 -0.17363,-0.214974 -0.25631,-0.518142 -0.0827,-0.305925 -0.0827,-0.691776 0,-0.782725 0.339,-1.201649 0.339,-0.416167 0.98116,-0.416167 0.33073,0 0.57327,0.107487 0.24529,0.104731 0.41065,0.30868 0.339,0.418924 0.339,1.198893 0,0.394119 -0.0854,0.700044 -0.0827,0.305924 -0.25356,0.51263 -0.16536,0.20395 -0.41341,0.308681 -0.24529,0.10473 -0.57051,0.10473 z m 0,-0.429947 q 0.38861,0 0.58705,-0.303169 0.19844,-0.300412 0.19844,-0.887456 0,-0.587045 -0.19844,-0.890213 -0.19844,-0.300412 -0.58705,-0.300412 -0.38585,0 -0.58428,0.300412 -0.19844,0.303168 -0.19844,0.890213 0,0.587044 0.19844,0.887456 0.19843,0.303169 0.58428,0.303169 z"
         style="font-style:normal;font-variant:normal;font-weight:normal;font-stretch:normal;font-family:Hack;-inkscape-font-specification:Hack;stroke-width:0.26458332"
         id="path1007" />
      <path
         d="m 108.21498,28.573622 q -0.56775,0 -0.80478,-0.228755 -0.23426,-0.225998 -0.23426,-0.788238 v -1.686718 h -0.82407 v -0.394119 h 0.82407 v -0.807531 l 0.50711,-0.220486 v 1.028017 h 1.15204 v 0.394119 h -1.15204 v 1.686718 q 0,0.338998 0.12954,0.476802 0.12678,0.135047 0.452,0.135047 h 0.5705 v 0.405144 h -0.62011 z"
         style="font-style:normal;font-variant:normal;font-weight:normal;font-stretch:normal;font-family:Hack;-inkscape-font-specification:Hack;stroke-width:0.26458332"
         id="path1009" />
      <path
         d="m 111.25493,28.642523 q -0.35553,0 -0.63941,-0.107486 -0.28112,-0.110244 -0.47956,-0.322461 -0.19843,-0.212218 -0.30316,-0.509875 -0.10198,-0.300412 -0.10198,-0.677994 0,-0.388607 0.10473,-0.680751 0.10473,-0.2949 0.28939,-0.501606 0.20119,-0.223242 0.47129,-0.330729 0.27009,-0.110243 0.58153,-0.110243 0.30868,0 0.54019,0.101974 0.23427,0.101975 0.39963,0.294901 0.16537,0.192925 0.25081,0.468533 0.0882,0.272851 0.0882,0.625629 v 0.248047 h -2.19659 v 0.01654 q 0,0.504362 0.26458,0.77997 0.12678,0.132292 0.30592,0.20395 0.18191,0.07166 0.43271,0.07166 0.2508,0 0.50987,-0.07717 0.26734,-0.07993 0.565,-0.234266 v 0.504362 q -0.14607,0.06063 -0.28388,0.104731 -0.1378,0.0441 -0.27285,0.07441 -0.13229,0.03032 -0.26458,0.0441 -0.13229,0.01378 -0.26183,0.01378 z m 0.69453,-1.898936 q -0.006,-0.237023 -0.0634,-0.405143 -0.0551,-0.170877 -0.14607,-0.275608 -0.0992,-0.115755 -0.24529,-0.173633 -0.14607,-0.05788 -0.32797,-0.05788 -0.37207,0 -0.60634,0.242534 -0.23702,0.245291 -0.28112,0.672483 z"
         style="font-style:normal;font-variant:normal;font-weight:normal;font-stretch:normal;font-family:Hack;-inkscape-font-specification:Hack;stroke-width:0.26458332"
         id="path1011" />
      <path
         d="m 114.41339,28.642523 q -0.12127,0 -0.2508,-0.01378 -0.12678,-0.01102 -0.24529,-0.03307 -0.10749,-0.02205 -0.25356,-0.06063 -0.14332,-0.03859 -0.28939,-0.08544 v -0.523654 q 0.17639,0.08819 0.30041,0.137803 0.12403,0.04685 0.24254,0.07993 0.12678,0.03583 0.24529,0.05512 0.11851,0.01929 0.24529,0.01929 0.33348,0 0.5209,-0.137804 0.0965,-0.07166 0.14056,-0.168121 0.0441,-0.09646 0.0441,-0.195681 0,-0.192926 -0.1626,-0.311437 -0.16261,-0.121267 -0.51263,-0.192925 l -0.022,-0.0055 -0.19017,-0.03858 q -0.20671,-0.04134 -0.36932,-0.110243 -0.15985,-0.0689 -0.27009,-0.179145 -0.2012,-0.201194 -0.2012,-0.553972 0,-0.223242 0.0744,-0.394119 0.0772,-0.170876 0.226,-0.289388 0.15709,-0.126779 0.37482,-0.181901 0.21773,-0.05788 0.48783,-0.05788 0.11851,0 0.23702,0.01102 0.11851,0.01102 0.23427,0.03307 0.10473,0.02205 0.21773,0.05788 0.11575,0.03307 0.23151,0.07993 v 0.496093 q -0.22049,-0.126779 -0.43822,-0.190169 -0.11024,-0.03032 -0.22324,-0.04685 -0.11024,-0.01654 -0.23702,-0.01654 -0.15985,0 -0.28939,0.02756 -0.12678,0.02756 -0.21222,0.08268 -0.17088,0.113 -0.17088,0.34451 0,0.09646 0.0303,0.176389 0.0331,0.07993 0.0965,0.129535 0.0634,0.04961 0.20947,0.09922 0.14882,0.04685 0.42168,0.09922 l 0.20395,0.03858 q 0.19843,0.03859 0.33899,0.110243 0.14056,0.07166 0.23427,0.176389 0.19292,0.212218 0.19292,0.56224 0,0.237022 -0.0854,0.413411 -0.0827,0.173633 -0.23978,0.297656 -0.16812,0.132292 -0.39412,0.195682 -0.22324,0.06339 -0.49334,0.06339 z"
         style="font-style:normal;font-variant:normal;font-weight:normal;font-stretch:normal;font-family:Hack;-inkscape-font-specification:Hack;stroke-width:0.26458332"
         id="path1013" />
    </g>
  </g>
</svg>
